<?xml version="1.0" encoding="UTF-8"?>
<svg id="Layer_1" data-name="Layer 1" xmlns="http://www.w3.org/2000/svg" viewBox="0 0 486 121">
  <g id="XTUz38">
    <g>
      <polygon points="83 121 76 121 56.5 87.02 36 121 1 121 0 120 0 117 41.99 47 83 121"/>
      <path d="M70,0l69,121h-7l-47.02-82c-1.28-.21-1.27-.32-2.05.63-1.15,1.4-2.49,4.61-3.47,6.38-.43.77-.24,2.8-1.96,1.98-2.36-1.13-14.51-26.52-17.77-30.31-.63-.94-.58-1.64-.32-2.69.98-3.95,7.09-10.65,8.59-14.99h2Z"/>
      <path d="M112,121h-7l-33.51-57.99c-1-1.22-.98-1.24-1.98,0-1.16,1.44-5.04,9.98-6.01,9.98l-18.08-30.98-.02-3.03,10.1-16.96,56.5,98.98Z"/>
      <path d="M177,121c-12.37-4.74-19.88-16.34-13.87-29.37s25.27-15.91,32.78-2.96c.27,1.75-4.66,4.58-6.33,4.4-4.48-8.24-15.68-6.86-19.04,1.95-5.27,13.82,9.66,25.2,20.11,13.12l6.34,3.36c-2.76,5.65-7.49,7.46-12.97,9.51h-7Z"/>
      <polygon points="486 120 458 120 458 81 466 81 466 113 486 113 486 120"/>
      <path d="M237.5,23c8.37,1.22,12.95,9.28,11.28,17.29-.73,3.5-5.77,7.6-5.64,9.03l7.86,13.68-9.01-.48c-4.68-5.77-5.4-14.7-15-12.51v13.01s-8,0-8,0V23c5.77.59,12.93-.81,18.5,0ZM227,43c4.71-.13,12.46,1.51,13.82-4.72,1.87-8.56-8.1-7.56-13.82-7.29v12.01Z"/>
      <path d="M292.5,81c5.06,1.03,9.6,8.35,9.43,13.4-.43,12.41-11.93,13.88-21.93,12.59v13.01s-8,0-8,0v-39c6.01.84,14.92-1.14,20.5,0ZM291.77,89.23c-3.57-2.03-7.86-1.04-11.78-1.23v12.01c8.99.62,16.48.32,11.78-10.77Z"/>
      <path d="M437,120l-8.05-.44-3.07-8.43h-13.25s-3.75,8.75-3.75,8.75l-8.88.12,14.08-38.91c2.5.12,7.89-.98,9.44.9l13.48,38.02ZM424,104.99c-2.44-4.23-2.27-10.79-5.99-13.99l-4,13.99h10Z"/>
      <path d="M337,23c.36,1.63-.24,2.3-.97,3.52-1.6,2.71-11.64,15.53-11.73,16.97l12.7,19.49-9.01-.48-8.49-12.49-8.68,12.8-8.82.18,11.95-19.49-12.95-20.5,9.01.48,9.49,13.49c1.73,0,7.65-12.38,9.49-13.49,1.99-1.21,5.67-.2,8.01-.49Z"/>
      <path d="M199,62.99l-8.88-.11-3.25-9.75-13.98.46-3.02,9.29-7.87.12,14.12-39.88c2.3-.07,6.95-.91,8.4.86l14.48,39.01ZM185,48l-4.49-13.99-5.5,13.99h10Z"/>
      <path d="M393,63l-8.91-.08c-.55-2.25-1.66-9.11-3.71-9.79-3.07.19-10.92-1.2-12.9.84-1.7,1.75-1.9,7.52-3.42,8.58l-8.05.44c2.43-5.26,12.25-37.87,14.97-39.51,1.76-1.06,6.82-1.1,7.93,1.11l14.09,38.41ZM379,48l-.43-3.06-4.55-11.93c-.18,2.49-5.28,13.82-4.01,14.99h9Z"/>
      <path d="M236.85,81.15l14.14,38.85-8.05-.44-3.07-8.43-14.79-.04-2.16,8.83-8.92.08,14.09-38.9,8.76.05ZM238,104.99c-1.94-4.14-2.76-8.79-4.52-12.99-.4-.96-.1-2.29-1.48-2l-4.01,14.99h10Z"/>
      <polygon points="386 81 386 88 374 88 374 120 366 120 366 88 353 88 353 81 386 81"/>
      <rect x="273" y="23" width="8" height="40"/>
      <rect x="324" y="81" width="8" height="39"/>
    </g>
  </g>
</svg>