<?xml version="1.0" encoding="UTF-8"?>
<svg id="Layer_1" data-name="Layer 1" xmlns="http://www.w3.org/2000/svg" viewBox="0 0 815.3 196">
  <defs>
    <style>
      .cls-1 {
        fill: #010101;
      }
    </style>
  </defs>
  <path d="M168.21,28.66c2.5,2.49,5.23,4.54,7.44,7.28,4.21,5.22,8.16,9,11.61,15.14,16.76,29.84,16.01,69.65-4.12,97.93-20.83,29.27-53.12,50.02-90.32,46.62-21.81-1.99-40.48-7.73-57.65-21.64-13.6-11.02-29.39-35.89-33.13-52.98-1.23-5.6-1.72-14.54-1.96-20.36C-1.43,63.94,19.9,30.76,51.18,12.92c4.95-2.82,11.55-6.26,17-7.81C76.6,2.7,84.12.34,93.05.06c20.44-.63,41.78,3.66,59.32,14.64,1.34.84,7.52,4.9,8.19,5.67,2.48,2.83,4.96,5.62,7.64,8.29ZM115.8,12.01l-7.41-1.24c-5-.36-10.04-.66-15.07-.24-3.45.29-7.11,1.38-10.59,1.7.86,3.13,1.46,6.35,2.31,9.49,4.51,16.69,9.11,33.18,11.98,50.29.37,2.17.65,4.42.79,6.63.42.06.23-.55.24-.85.06-1.57.04-3.3.01-4.88-.36-17.7.31-35.44.22-53.27l.74-8.38h1.95c.45,15.84.49,31.64.5,47.57,0,.89-.22,1.98-.25,2.9l.24,12.29,2.49-12.96c3.42-16.48,7.22-32.89,11.85-49.05ZM104.13,79.61l29.43-62.64c-.13-.21-.34-.3-.55-.41-1.89-1.04-9.16-3.11-11.6-3.72-1-.25-2.03-.44-3.05-.52l-.32.31-13.91,66.98ZM80.29,12.96c-.2-.2-4.99.45-5.61.59-.76.17-1.46.72-2.22.94-2.89.83-5.93,1.44-8.44,3.21,1.66,3.04,3.28,6.11,4.93,9.16,5.22,9.61,10.44,19.31,14.86,29.41l12.29,29.18c-1.01-5.52-1.85-11.05-3.04-16.54-3.53-16.3-8.34-32.31-11.63-48.69-.47-2.34-.77-4.87-1.15-7.25ZM136.14,42.53c2.81-3.67,5.71-7.37,8.62-10.96.72-.89,5.46-6,5.33-6.55-4.44-3.01-9.15-5.7-14.23-7.43l-.46.23c-3.17,7.29-5.95,14.76-9.08,22.06-5.41,12.6-11.1,24.99-17.28,37.2-.89,1.76-1.85,3.57-2.46,5.44,5.02-6.76,10.17-13.44,15.17-20.22,4.83-6.55,9.45-13.32,14.4-19.78ZM93.18,86.42l-21.6-47.6c-3.45-6-5.84-13.26-9.28-19.18-.17-.29-.4-.85-.81-.82-1.86,1.33-4.27,1.98-6.17,3.09-1.46.85-4.05,2.58-5.4,3.6-.3.22-1.54,1.14-1.47,1.42l44.75,59.49ZM154.16,27.88l-2.11-1.43c-2.79,4.73-6.4,8.85-9.58,13.29-9.92,13.82-19.86,27.74-30.45,41.07-1.66,2.09-3.42,4.12-5.21,6.1.18.17,1.7-1.12,1.95-1.33,5.29-4.45,10.4-9.7,15.56-14.36,12.39-11.17,24.9-22.37,37.7-33.08.48-.4,1.1-.92,1.71-1.1-2.22-3.24-5.57-5.38-8.52-7.9-.46-.39-.74-.99-1.05-1.26ZM88.56,85.69c.16-.18-1.46-2.23-1.71-2.55-10.23-13.07-20.16-26.26-29.77-39.8-2.96-4.17-5.61-8.59-8.8-12.61-.62-.79-1.59-1.39-1.81-2.45-.71-.51-9.35,7.91-10.59,8.75l-1.8,2.67c2.99,2.11,5.55,4.75,8.38,7.06,14.53,11.84,28.43,24.5,43.04,36.26,1.02.82,1.99,1.87,3.05,2.67ZM168.52,41.49c-.15-.18-.64-.35-.91-.67-.29-.35-1.57-2.03-1.81-2.03-.73.54-1.48,1.09-2.19,1.66-6.23,5-12.1,11.75-18.12,17.15-8.46,7.58-17.47,14.63-26.03,22.14l-10.95,9.6,6.94-3.88c16.78-11.14,34.39-20.96,52.17-30.29,2.38-1.25,4.73-2.57,7.06-3.9.47-.49-.9-2.79-1.27-3.36-1.13-1.79-2.58-2.56-3.71-4.08-.58-.78-.82-1.87-1.19-2.34ZM42.75,50.5c-3.5-3.09-7.07-6.2-10.73-9.09-1.45,1.49-2.49,3.31-3.78,4.92-.64.79-1.66,1.58-2.29,2.4-.38.49-3.5,4.86-3.3,5.09,1.06.15,2.21.62,3.17,1.09,15.86,7.64,30.79,17.79,46.29,26.2l15.49,8.23c-9.99-7.71-19.68-15.89-29.07-24.31-5.31-4.76-10.42-9.8-15.77-14.52ZM176.6,53.84c-.23-.16-4.4,2.06-5.01,2.38-14.07,7.38-27.65,16.03-41.21,24.22l-15.55,9.14c5.68-1.74,11.18-4.01,16.79-5.95,13.73-4.72,27.6-9.43,41.58-13.39,1.21-.34,9.91-2.3,9.96-2.91-2.01-4.6-3.79-9.28-6.57-13.49ZM80.53,89.1L21.73,55.57l-.53-.03c-.29,1.35-1.75,2.52-2.31,3.65s-.93,2.85-1.49,4.11c-.41.91-3.38,6.95-3.03,7.3,16.91,3,32.94,9.2,49.33,14.04,5.34,1.58,10.86,2.65,16.1,4.57l.73-.12ZM183.91,69.63l-70.78,23.83c4.09-.55,8.19-1.24,12.29-1.7,17.71-1.97,35.5-3.9,53.27-5.36,2.9-.24,5.76-.84,8.73-.51l.3-.47c-.6-3.35-.79-7.19-1.71-10.46-.5-1.78-1.68-3.51-2.08-5.34ZM82.24,93.47c-3.75-.76-7.46-1.78-11.14-2.85-18.29-5.36-36.31-12.46-54.73-17.27-.85-.22-1.7-.47-2.57-.58-.23.05-.5,1.17-.57,1.43-.88,2.99-1.82,8.52-2.18,11.68-.07.63-.22,1.93-.22,2.48.01.95,1.25.28,1.72.3,20.18,1,40.97,1.98,61.05,4.09,2.59.27,5.17.82,7.78.98.26.02.92.16.86-.25ZM188.05,105.39c-.35-1.36.4-2.61.49-3.77.33-4.18-.04-8.87-.35-13.03l-.5-.23-76.01,8.27,76.38,8.75ZM81.99,96.64l-71.51-5.6c-.26,5.18-.55,10.42.26,15.55,22.02-3.69,44.17-6.81,66.4-9.1l4.86-.85ZM84.18,99.79c-.47-.63-2.25-.29-3.01-.21-5.77.6-11.81,2.26-17.57,3.1-11.26,1.64-22.7,2.63-34,4.19-6.05.84-12.07,1.96-18.15,2.65-.35,1.35.47,2.44.67,3.58.54,3.12.94,6.15,1.72,9.23.33,1.3,1.07,2.76,1.01,4.22.46.49,6.65-2.78,7.62-3.21,10.99-4.87,22.26-9.23,33.49-13.45,9.35-3.51,18.77-6.84,28.21-10.1ZM187.53,107.86l-75.86-8.06c-.12.67.14.41.53.55,18.81,6.61,38.02,12.15,56.51,19.64,4.26,1.73,8.75,4.18,13.01,5.72.43.16,1.65.67,1.97.22,1.8-5.88,3.24-11.95,3.83-18.06ZM85.64,101.99c-18.41,7.39-36.86,14.67-55.47,21.52-3.88,1.43-7.86,2.64-11.73,4.08-.97.36-1.72,1.12-2.85.92l.93,3.09,7.84,14.42c.57.4,10.04-7.49,11.21-8.37,13.01-9.82,26.3-19.16,39.65-28.46,3.46-2.41,7.16-4.6,10.44-7.2ZM113.86,104.18l36.42,23.54c4.82,3.76,9.94,7.13,14.93,10.61,2.92,2.04,5.75,4.18,8.73,6.12.26.12.34-.12.49-.26.77-.73,2.19-3.05,2.77-4.05,1.51-2.6,4.22-7.88,5.18-10.62.08-.22.29-1.17.21-1.28-1.68-.85-3.59-1.09-5.37-1.68-19.34-6.47-38.37-14.03-57.71-20.37-1.89-.62-3.75-1.39-5.65-2.01ZM87.59,104.91l-61.78,43.17c1.44.92,2.06,2.75,3.07,4,.3.37,1.01.78,1.29,1.12,2.3,2.73,4.52,5.51,7.19,7.9l50.23-56.18ZM172.72,146.02l-63.97-40.87,52.07,54.47.48-.1c1.72-1.83,4.03-3.42,5.71-5.23,2.06-2.22,3.55-5.26,5.59-7.55l.12-.71ZM109.58,110.89c-1.24-1.34-2.22-2.97-3.74-4.04.33,1.38,1.35,2.57,1.99,3.72,8.55,15.4,18.64,29.93,27.64,45.1,3.2,5.39,6.09,10.97,9.32,16.34l.68-.1c5.06-2.68,9.33-6.41,13.82-9.89v-1.11c-8.42-7.32-16.21-15.32-24.03-23.27-8.63-8.78-17.29-17.7-25.68-26.73ZM52.8,172.77l36-64.7-12.04,13.63c-11.54,12.09-22.19,24.95-33.68,37.1-1.26,1.33-2.76,2.41-3.9,3.89,4.29,3.67,8.43,7.66,13.61,10.09ZM71.27,181.27l21.66-72.71-11.96,20.27c-7.84,14.6-16.44,28.86-25.16,42.95-.32.52-1.44,1.59-1.55,1.85-.17.4.16.33.31.41,4.47,2.6,9.3,5.03,14.22,6.7.8.27,1.61.66,2.48.53ZM88.56,184.93c-.11-.29-.24-.52-.25-.86-.19-4.25.66-8.86.98-13.13,1.24-16.28,2.7-32.41,4.89-48.62.55-4.09,1.34-8.18,1.68-12.31l-1.87,5.3c-5.66,19.9-11.66,39.78-18.55,59.29-.68,1.93-2.47,5.2-2.68,7.06-.06.53.06.26.34.37,1.7.68,4.35,1.3,6.16,1.62.79.14,1.59-.04,2.34.09,2.32.4,4.59,1.2,6.96,1.18ZM126.75,180.56c5.86-1.35,11.36-4,16.29-7.42-11.15-17.9-23.35-35.09-34.05-53.27l-5.35-9.85,23.11,70.54ZM106.81,184.93c-.67-5.6-2.1-11.11-2.89-16.69-2.48-17.6-3.85-35.32-5.38-53l-.48-2.07c-.05.76.07,1.55,0,2.31-1.5,16.21-3.03,31.81-5.07,47.96-.91,7.17-1.57,14.36-2.71,21.49h16.54ZM125.05,181.28c-3.18-9.42-7.36-18.48-10.71-27.84-2.24-6.26-4.08-12.67-6.38-18.91l-6.5-21.1,7.05,71.27c5.61-.65,11.19-1.59,16.54-3.41Z"/>
  <g>
    <path class="cls-1" d="M306.94,141.53l-30.44-68.25c-.8-2.21-1.63-3.93-2.51-5.15-.88-1.22-1.87-2.1-2.98-2.63-1.12-.53-2.59-.88-4.42-1.03l-4.06-.34v-4.47c1.27.08,2.78.13,4.54.17,1.75.04,3.56.08,5.43.11,1.87.04,3.6.06,5.19.06h.84c2.23,0,4.48-.02,6.74-.06,2.27-.04,4.48-.08,6.62-.11,2.15-.04,4.16-.08,6.03-.11,1.87-.04,3.52-.06,4.95-.06v4.47l-4.66.46c-3.66.31-5.97,1.13-6.92,2.46-.95,1.34-.68,3.8.84,7.39l22.8,51.76-2.63,1.6,19.93-46.26c2.31-5.19,2.76-9.2,1.37-12.02-1.39-2.82-4.64-4.54-9.73-5.15l-2.27-.23v-4.47c3.18.08,6.46.15,9.85.23,3.38.08,6.58.11,9.61.11s5.71-.04,8.3-.11c2.58-.07,4.95-.15,7.1-.23v4.47l-2.03.11c-2.71.46-4.97,1.2-6.8,2.23-1.83,1.03-3.5,2.65-5.01,4.87-1.51,2.22-3.03,5.19-4.54,8.93l-26.74,61.27h-4.42Z"/>
    <path class="cls-1" d="M371.27,111.29v-15.46c0-3.28-.62-5.57-1.85-6.87-1.23-1.3-3.56-2.18-6.98-2.63l-3.58-.11v-4.47c1.59.08,3.02.13,4.3.17,1.27.04,2.75.06,4.42.06,3.34,0,6.4-.13,9.19-.4,2.78-.27,5.29-.67,7.52-1.2v30.92h-13.01ZM367.81,140.5c-2.95.08-5.93.15-8.95.23v-4.47l3.82-.12c3.26-.46,5.51-1.33,6.74-2.63,1.23-1.3,1.85-3.51,1.85-6.64v-15.57h13.01v15.57c0,3.13.66,5.34,1.97,6.64,1.31,1.3,3.68,2.18,7.1,2.63l3.82.12v4.47c-3.1-.08-6.13-.15-9.07-.23-2.95-.07-6.37-.11-10.27-.11s-7.08.04-10.03.11ZM377.84,68.69c-2.39,0-4.46-.78-6.21-2.35-1.75-1.56-2.63-3.49-2.63-5.78s.9-4.31,2.69-5.84c1.79-1.53,3.88-2.29,6.27-2.29s4.54.78,6.21,2.35c1.67,1.57,2.51,3.49,2.51,5.78s-.86,4.31-2.57,5.84c-1.71,1.53-3.8,2.29-6.27,2.29Z"/>
    <path class="cls-1" d="M418.18,111.29v-15.46c0-3.28-.62-5.57-1.85-6.87-1.23-1.3-3.56-2.18-6.98-2.63l-3.58-.11v-4.47c1.59.08,3.02.13,4.3.17,1.27.04,2.75.06,4.42.06,3.34,0,6.4-.13,9.19-.4,2.78-.27,5.29-.67,7.52-1.2v30.92h-13.01ZM414.72,140.5c-2.95.08-5.93.15-8.95.23v-4.47l3.82-.12c3.26-.46,5.51-1.33,6.74-2.63,1.23-1.3,1.85-3.51,1.85-6.64v-15.57h13.01v15.57c0,3.21.6,5.5,1.79,6.87,1.19,1.37,3.22,2.14,6.09,2.29l1.79.23v4.47c-2.71-.08-5.29-.15-7.76-.23-2.47-.07-5.25-.11-8.36-.11-3.74,0-7.08.04-10.03.11ZM458.53,111.29v-10.65c0-4.73-1-8.26-2.98-10.59-1.99-2.33-4.89-3.49-8.71-3.49-4.06,0-7.64,1.22-10.74,3.66-3.1,2.44-5.81,6.22-8.12,11.34l-.95-2.29c2.7-6.57,6.09-11.41,10.15-14.54,4.06-3.13,8.87-4.69,14.44-4.69,6.45,0,11.38,1.85,14.8,5.55,3.42,3.7,5.13,9.03,5.13,15.98v9.73h-13.01ZM456.92,140.5c-2.43.08-4.95.15-7.58.23v-4.47l1.31-.12c2.94-.23,4.99-1.03,6.15-2.4,1.15-1.37,1.73-3.67,1.73-6.87v-15.57h13.01v15.57c0,3.13.64,5.34,1.91,6.64,1.27,1.3,3.54,2.18,6.8,2.63l3.82.12v4.47c-3.1-.08-6.15-.15-9.13-.23-2.98-.07-6.31-.11-9.97-.11-2.94,0-5.63.04-8.06.11Z"/>
    <path class="cls-1" d="M518.8,142.33c-4.85,0-9.17-1.22-12.95-3.67-3.78-2.44-6.68-5.99-8.71-10.65-2.03-4.66-3.04-10.12-3.04-16.38s1.11-11.99,3.34-16.72c2.23-4.73,5.41-8.4,9.55-10.99,4.14-2.59,9.07-3.89,14.8-3.89,4.54,0,8.36.92,11.46,2.75,3.1,1.83,5.41,4.16,6.92,6.99l-1.43,3.44c-.88-2.29-2.53-4.16-4.95-5.61-2.43-1.45-5.27-2.18-8.53-2.18-5.57,0-9.85,2.22-12.83,6.64-2.98,4.43-4.48,10.8-4.48,19.12s1.33,14.28,4,18.55c2.66,4.28,6.62,6.41,11.88,6.41,3.5,0,6.6-1.01,9.31-3.03,2.7-2.02,4.66-4.64,5.85-7.84l.96,3.09c-1.19,4.05-3.64,7.39-7.34,10.02s-8.3,3.95-13.79,3.95ZM537.78,111.29v-44.89c0-3.36-.66-5.69-1.97-6.99-1.31-1.3-3.68-2.14-7.1-2.52l-3.46-.23v-4.47c1.51.08,2.9.13,4.18.17,1.27.04,2.75.06,4.42.06,3.42,0,6.54-.13,9.37-.4,2.82-.27,5.35-.63,7.58-1.09v60.35h-13.01ZM537.78,140.72v-29.43h13.01v15.23c0,3.28.62,5.57,1.85,6.87,1.23,1.3,3.6,2.21,7.1,2.75l3.94.12v4.47c-1.75-.08-3.3-.13-4.66-.17-1.35-.04-2.79-.06-4.3-.06-3.34,0-6.47.13-9.37.4-2.91.27-5.43.67-7.58,1.2v-1.37Z"/>
    <path class="cls-1" d="M583.37,111.29v-15.46c0-3.28-.62-5.57-1.85-6.87-1.23-1.3-3.56-2.18-6.98-2.63l-3.58-.11v-4.47c1.59.08,3.02.13,4.3.17,1.27.04,2.75.06,4.42.06,3.34,0,6.4-.13,9.19-.4,2.78-.27,5.29-.67,7.52-1.2v30.92h-13.01ZM579.91,140.5c-2.95.08-5.93.15-8.95.23v-4.47l3.82-.12c3.26-.46,5.51-1.33,6.74-2.63,1.23-1.3,1.85-3.51,1.85-6.64v-15.57h13.01v15.57c0,3.13.66,5.34,1.97,6.64,1.31,1.3,3.68,2.18,7.1,2.63l3.82.12v4.47c-3.1-.08-6.13-.15-9.07-.23-2.94-.07-6.37-.11-10.27-.11s-7.08.04-10.03.11ZM589.94,68.69c-2.39,0-4.46-.78-6.21-2.35-1.75-1.56-2.63-3.49-2.63-5.78s.9-4.31,2.69-5.84c1.79-1.53,3.88-2.29,6.27-2.29s4.54.78,6.21,2.35c1.67,1.57,2.51,3.49,2.51,5.78s-.86,4.31-2.57,5.84c-1.71,1.53-3.8,2.29-6.27,2.29Z"/>
    <path class="cls-1" d="M638.88,81.86v29.43h-13.01v-15.23c0-3.36-.68-5.69-2.03-6.99-1.35-1.3-3.66-2.14-6.92-2.52l-3.94-.23v-4.47c1.67.08,3.18.13,4.54.17,1.35.04,2.78.06,4.3.06,3.42,0,6.55-.13,9.37-.4,2.82-.27,5.39-.63,7.7-1.09v1.26ZM638.88,111.29v11.22c0,4.51.95,7.9,2.86,10.19,1.91,2.29,4.73,3.44,8.47,3.44s7.38-1.26,10.44-3.78c3.06-2.52,5.67-6.3,7.82-11.34l.84,2.29c-2.39,6.49-5.59,11.32-9.61,14.49-4.02,3.17-8.85,4.75-14.5,4.75-6.21,0-10.98-1.81-14.32-5.44-3.34-3.62-5.01-8.84-5.01-15.63v-10.19h13.01ZM678.15,81.86v29.43h-13.01v-15.34c0-3.28-.6-5.59-1.79-6.93-1.19-1.33-3.34-2.12-6.45-2.35l-2.15-.34v-4.47c1.51.08,2.87.13,4.06.17,1.19.04,2.43.06,3.7.06,3.1,0,5.97-.11,8.59-.34,2.63-.23,4.97-.61,7.04-1.15v1.26ZM665.14,140.72v-29.43h13.01v15.23c0,3.28.64,5.57,1.91,6.87,1.27,1.3,3.62,2.21,7.04,2.75l3.82.12v4.47c-1.59-.08-3.06-.13-4.42-.17-1.35-.04-2.83-.06-4.42-.06-3.42,0-6.53.13-9.31.4-2.79.27-5.33.67-7.64,1.2v-1.37Z"/>
    <path class="cls-1" d="M710.73,111.29v-15.46c0-3.28-.62-5.57-1.85-6.87-1.23-1.3-3.56-2.18-6.98-2.63l-3.58-.11v-4.47c1.59.08,3.02.13,4.3.17,1.27.04,2.75.06,4.42.06,3.34,0,6.4-.13,9.19-.4,2.78-.27,5.29-.67,7.52-1.2v30.92h-13.01ZM707.27,140.5c-2.94.08-5.93.15-8.95.23v-4.47l3.82-.12c3.26-.46,5.51-1.33,6.74-2.63,1.23-1.3,1.85-3.51,1.85-6.64v-15.57h13.01v15.57c0,3.21.58,5.5,1.73,6.87,1.15,1.37,3.16,2.18,6.03,2.4l1.43.12v4.47c-2.63-.08-5.13-.15-7.52-.23-2.39-.07-5.09-.11-8.12-.11-3.74,0-7.08.04-10.03.11ZM750.24,111.29v-11.22c0-4.5-.95-7.88-2.86-10.13-1.91-2.25-4.77-3.38-8.59-3.38s-7.36,1.24-10.38,3.72c-3.03,2.48-5.61,6.24-7.76,11.28l-.84-2.52c2.47-6.41,5.69-11.18,9.67-14.31,3.98-3.13,8.75-4.69,14.32-4.69,6.21,0,11,1.81,14.38,5.44,3.38,3.63,5.07,8.88,5.07,15.75v10.08h-13.01ZM748.69,140.5c-2.47.08-4.97.15-7.52.23v-4.47l1.43-.12c2.78-.23,4.75-1.03,5.91-2.4,1.15-1.37,1.73-3.67,1.73-6.87v-15.57h13.01v15.57c0,3.21.54,5.5,1.61,6.87,1.07,1.37,3.08,2.18,6.03,2.4l1.31.12v4.47c-2.63-.08-5.13-.15-7.52-.23-2.39-.07-5.05-.11-8-.11s-5.53.04-8,.11ZM789.39,111.29v-11.22c0-4.5-.92-7.88-2.75-10.13-1.83-2.25-4.85-3.38-9.07-3.38-3.82,0-7.28,1.15-10.38,3.44-3.1,2.29-5.73,5.73-7.88,10.31l-1.55-2.52c2.47-5.96,5.83-10.4,10.09-13.34,4.26-2.94,9.21-4.41,14.86-4.41,6.45,0,11.34,1.81,14.68,5.44,3.34,3.63,5.01,8.88,5.01,15.75v10.08h-13.01ZM787.84,140.5c-2.39.08-4.85.15-7.4.23v-4.47l1.19-.12c2.87-.23,4.85-1.03,5.97-2.4,1.11-1.37,1.67-3.67,1.67-6.87v-15.57h13.01v15.57c0,3.13.66,5.34,1.97,6.64,1.31,1.3,3.6,2.18,6.86,2.63l4.18.12v4.47c-3.26-.08-6.39-.15-9.37-.23-2.98-.07-6.39-.11-10.21-.11-2.86,0-5.49.04-7.88.11Z"/>
  </g>
</svg>